inDegrees=no
num_controls=7
num_derivatives=13
num_iterations=94
num_multipliers=7
num_parameters=0
num_slacks=7
num_states=26
objective=5.098967
objective_accelerations=0.614482
objective_balance=0.023508
objective_effort=0.162628
objective_height=4.272372
objective_ligament=0.025977
solver_duration=1038.146166
status=Solve_Succeeded
success=true
DataType=double
version=3
OpenSimVersion=4.4-2022-07-23-0e9fedc
endheader
time	/jointset/ground_pelvis/pelvis_tilt/value	/jointset/ground_pelvis/pelvis_tx/value	/jointset/ground_pelvis/pelvis_ty/value	/jointset/hip_l/hip_flexion_l/value	/jointset/hip_l/hip_adduction_l/value	/jointset/hip_l/hip_rotation_l/value	/jointset/back/lumbar_extension/value	/jointset/patellofemoral_l/patellar_flexion_l/value	/jointset/knee_l/knee_flexion_l/value	/jointset/knee_l/knee_adduction_l/value	/jointset/knee_l/knee_rotation_l/value	/jointset/ankle_l/ankle_angle_l/value	/jointset/subtalar_l/subtalar_angle_l/value	/jointset/ground_pelvis/pelvis_tilt/speed	/jointset/ground_pelvis/pelvis_tx/speed	/jointset/ground_pelvis/pelvis_ty/speed	/jointset/hip_l/hip_flexion_l/speed	/jointset/hip_l/hip_adduction_l/speed	/jointset/hip_l/hip_rotation_l/speed	/jointset/back/lumbar_extension/speed	/jointset/patellofemoral_l/patellar_flexion_l/speed	/jointset/knee_l/knee_flexion_l/speed	/jointset/knee_l/knee_adduction_l/speed	/jointset/knee_l/knee_rotation_l/speed	/jointset/ankle_l/ankle_angle_l/speed	/jointset/subtalar_l/subtalar_angle_l/speed	/forceset/tau_hip_flexion_l	/forceset/tau_hip_adduction_l	/forceset/tau_hip_rotation_l	/forceset/tau_knee_flexion_l	/forceset/tau_ankle_angle_l	/forceset/tau_subtalar_angle_l	/forceset/tau_lumbar_extension	lambda_cid13_p0	lambda_cid13_p1	lambda_cid13_p2	lambda_cid13_p3	lambda_cid13_p4	lambda_cid13_p5	lambda_cid14_p0	/jointset/ground_pelvis/pelvis_tilt/accel	/jointset/ground_pelvis/pelvis_tx/accel	/jointset/ground_pelvis/pelvis_ty/accel	/jointset/hip_l/hip_flexion_l/accel	/jointset/hip_l/hip_adduction_l/accel	/jointset/hip_l/hip_rotation_l/accel	/jointset/back/lumbar_extension/accel	/jointset/patellofemoral_l/patellar_flexion_l/accel	/jointset/knee_l/knee_flexion_l/accel	/jointset/knee_l/knee_adduction_l/accel	/jointset/knee_l/knee_rotation_l/accel	/jointset/ankle_l/ankle_angle_l/accel	/jointset/subtalar_l/subtalar_angle_l/accel	gamma_cid13_p0	gamma_cid13_p1	gamma_cid13_p2	gamma_cid13_p3	gamma_cid13_p4	gamma_cid13_p5	gamma_cid14_p0
1.5	-0.3240227158426876	0.0691052071966604	0.8041746504115054	0.9267413338381312	-0.3705875484677764	-0.03957933803297516	-0.3199469565937401	0.7639347102485978	0.7639347102485986	-0.08146760308602012	-0.1643488621999057	0.2729153526731237	0.1377459115770606	0.4360214393529679	0.2435042759290414	0.427062728901171	-2.102569118887044	0.006589336289420696	-0.581747128702348	0.6166751268923938	-2.055586905262464	-2.05558690526245	-0.243155042400364	0.08335669618853619	-0.5504745674202476	-0.1965785609297031	-0.1238226303786772	0.02722876396380568	0.01339049941059287	-0.1261457731655454	-0.0527565694871269	0.01135402663075051	0.1202300505531158	-40.42147880616036	-0.03996062304490842	2.222772306287052	-0.5799594130189062	-432.4283472789061	-63.2714925100754	-12.47255989991759	0.4383928115018752	0.4504453384286854	-0.6739582068851626	-1.098574615828426	0.3333839944949784	-0.2659084384477489	1.400585765496369	-1.077359333354598	-1.077359333354805	-0.1084119952366452	0.4730770711750233	-0.4481904329296045	0.4593904678749625	2.382907651814415e-07	3.438570422380853e-06	-3.213215699698737e-06	3.116252148817236e-07	8.4206737630156e-07	2.994805752819545e-06	6.390073382154976e-07
1.51	-0.3196405549139388	0.07156243713530906	0.8084107628089956	0.9056620378061843	-0.3705070513634742	-0.04541009379389068	-0.313711844791376	0.7433267432977524	0.7433267432977748	-0.08390829340494196	-0.1634948410143865	0.2673881173255981	0.1358002554485683	0.4403384901451018	0.2478988226487222	0.4200693390148776	-2.112993844443841	0.009515937705641402	-0.584319702576541	0.6302576692703243	-2.065724850273584	-2.065724850273535	-0.2449719177554364	0.08746839773689791	-0.5548917691386049	-0.1925259306434108	-0.119926216294749	0.02604027529268556	0.01427399504908422	-0.1233360307173889	-0.05253835575521126	0.01001104951199575	0.1169269078065694	-40.31177520416057	0.4509681848823576	2.228022058118739	-0.2894506210297989	-429.7248821389597	-62.73335660383505	-13.28569212473834	0.4175497368339346	0.4276049183172241	-0.7254266396731169	-0.9699472438528017	0.2732627790609584	-0.2396332848820494	1.32365382812545	-0.9398973149244296	-0.9398973149197977	-0.2161917917686796	0.3828650958325034	-0.4262401351588937	0.3819429192403211	2.242667514940246e-07	3.791712305693449e-06	-3.080604168745966e-06	3.664985964435136e-07	8.290773846358078e-07	3.153389684747028e-06	6.476676983670122e-07
1.52	-0.3152173857724342	0.07406234165706926	0.8125742618555922	0.8844873893750816	-0.3703970953322319	-0.05126391557815005	-0.307343594494375	0.7226258198507272	0.7226258198509072	-0.0863667257744245	-0.1625991731336748	0.2618191589421185	0.1338958743449857	0.4442230818876855	0.2520391925513486	0.4125400587223139	-2.121639598730597	0.01248112167684434	-0.5863603333698026	0.6433028258156221	-2.074178204482023	-2.074178204481937	-0.2467034525555464	0.0916860352518834	-0.5588191746117448	-0.1883235559477653	-0.1160298022106927	0.02485178662157087	0.01515749068837725	-0.120526288269166	-0.05232014202324965	0.008668072393256475	0.1136237650601351	-40.19842338891737	0.9335738517978962	2.243378013627009	-0.03574332241113307	-426.999648082864	-62.28396441934812	-14.09699767083145	0.351901001592937	0.3996099750174421	-0.7811362881392175	-0.7427803618197903	0.3411005054914291	-0.1595198222611394	1.293108598970468	-0.7404411728184008	-0.740441172818331	-0.09134388424410708	0.4942642645001571	-0.3502311838866046	0.4893393497455817	2.082573229544441e-07	4.16446882922477e-06	-2.935747536534075e-06	4.229038962225111e-07	8.136020449133919e-07	3.304464491890753e-06	6.565595665253926e-07
1.53	-0.3107575276093025	0.07660232699279929	0.8166598782997766	0.863235137479704	-0.3702572961834293	-0.05713658346022604	-0.3008478367762695	0.7018488252556679	0.701848825255846	-0.08884142126125971	-0.1616615731639161	0.2562133861860884	0.1320343030552321	0.4476700980920472	0.2559086121286817	0.404501020072815	-2.128501518092989	0.015482562647892	-0.5880845576436131	0.6557394060955051	-2.080930762348221	-2.080930762348151	-0.2482230866309512	0.09585307621128679	-0.5622523461954209	-0.1839679864956542	-0.1120476397671995	0.02326381032407972	0.01600787498504384	-0.1179943656126046	-0.05199697905129196	0.007320458646374861	0.1102463027672921	-40.0653623704852	1.415270013674506	2.258274345110618	0.2500494578687403	-424.4932300544086	-61.92355237668917	-14.90706264604569	0.3293592784347533	0.3733209789172185	-0.8274620020812953	-0.611474351788634	0.2801825779506953	-0.1649111312731942	1.202535986881997	-0.5993043841055995	-0.5993043841088548	-0.1797955827079713	0.3803739317815796	-0.3272465922259205	0.4116436875937017	1.901383911344399e-07	4.558065907988486e-06	-2.777880484234368e-06	4.809368591072913e-07	7.954860228807708e-07	3.447560853951736e-06	6.656974119410677e-07
1.54	-0.3062655478143287	0.07917954913026666	0.8206626694877248	0.8419235510651021	-0.370087379287904	-0.0630237010653001	-0.2942309926064673	0.6810129768238036	0.6810129768240037	-0.09133081757179047	-0.1606818128004413	0.2505758044249006	0.1302168830489304	0.4506474082393196	0.2594865528988162	0.3959750074749563	-2.133506502589041	0.01850467102044794	-0.5892502779706846	0.6675201161507779	-2.085948971837786	-2.085948971837733	-0.2496436172471022	0.100118113975516	-0.5651809756437881	-0.179493299257554	-0.1080654773235065	0.02167583402671319	0.01685825928116698	-0.1154624429558694	-0.05167381607923672	0.00597284489969929	0.1068688404745919	-39.92899082186135	1.8893457276729	2.282429617341645	0.5019908516812972	-421.9664860939434	-61.64788937333855	-15.71333954436121	0.2579597901764227	0.3413142135772987	-0.8785310778111411	-0.3713933885511355	0.3452339857931805	-0.04781903291299132	1.1619345540492	-0.3935714974920599	-0.3935714974919645	-0.07152319239325525	0.5138636254656724	-0.2493227568254668	0.5131629069433119	1.646105907173531e-07	4.947525389551979e-06	-2.575574721800026e-06	5.430662434008878e-07	7.501902716776597e-07	3.548496351235633e-06	6.707718975179339e-07
1.55	-0.3017462238075232	0.08179108608790799	0.8245778281407636	0.8205713446949857	-0.3698870693619374	-0.06892105272545829	-0.2874997235118927	0.6601359227408178	0.6601359227410143	-0.0938330105817262	-0.1596599334702585	0.2449116519631329	0.1284450061303779	0.4531346012358693	0.2627700868087054	0.3869834468821205	-2.136617269171193	0.02155670821075775	-0.5901365941329444	0.6786061442739788	-2.08915707628752	-2.089157076287567	-0.2507787522600932	0.1042619432376877	-0.5675554980675305	-0.1748628698540002	-0.1039281788267028	0.02000171538349236	0.0176368758060526	-0.1133630741630976	-0.05079779493134821	0.004314190513427504	0.1033885527655185	-39.6501671868431	2.507181337394272	2.245265042567726	0.6642698275151903	-419.6617293401764	-61.15843344144917	-16.50675535204558	0.2317029048854789	0.3143896156815644	-0.9203337842295615	-0.2332659745292738	0.2848504741331812	-0.09587941290359757	1.062803169001781	-0.2388489245151266	-0.2388489245311438	-0.1313389325791098	0.3649447249979664	-0.2172336506180575	0.4402531351670917	1.305464851775411e-07	5.332217639558694e-06	-2.322067836819259e-06	6.099154175785549e-07	6.735787455607249e-07	3.600855199972021e-06	6.711646858892164e-07
1.56	-0.2972045071005683	0.08443396171184447	0.8284008981410362	0.7991975611228198	-0.3696563066863616	-0.07482463584824109	-0.2806614208905563	0.6392359038121534	0.6392359038123695	-0.096345920997468	-0.1585965554176388	0.2392266109440361	0.1267198875414836	0.4551259482518858	0.2657542861578461	0.3775572769215949	-2.137821943012703	0.02459522094033405	-0.5904965704960229	0.6889268214990194	-2.09054194096926	-2.090541940969409	-0.2517870983461387	0.1084178584360347	-0.5693586871100301	-0.1701416333262243	-0.09979088032969724	0.01832759674039441	0.01841549233021549	-0.1112637053701145	-0.04992177378334899	0.002655536127361939	0.09990826505657287	-39.37111322660662	3.118064409834415	2.217105699241346	0.8039130355950849	-417.3891289145931	-60.7563896473054	-17.28253267258931	0.1587905940713024	0.281447301426986	-0.965452951349082	0.009825159577627078	0.3425290936465944	0.0574489269236037	1.008864374417998	-0.02892354389365509	-0.0289235438936521	-0.04616540700404054	0.5162808127010908	-0.1350560805777083	0.5313243317875911	9.790164957136226e-08	5.612512116323544e-06	-2.085681030214369e-06	6.60019678309315e-07	6.02546016792273e-07	3.604642239042423e-06	6.649718605204825e-07
1.57	-0.2926454311749399	0.08710506784375793	0.8321276111371279	0.7778215393527091	-0.369395060356451	-0.08072992180515293	-0.2737238315226985	0.6183313922471093	0.6183313922471813	-0.0988676062970959	-0.1574920016704071	0.2335264257112522	0.125042685815184	0.4566058878822159	0.2684046807578239	0.3677218894315924	-2.13704760262304	0.02764959698331283	-0.5904706814165629	0.698444143476962	-2.090044021803915	-2.090044021804184	-0.252533955199868	0.1124917836717425	-0.570589131997305	-0.1652877372481504	-0.09576522805364761	0.01648311451979253	0.01913262815919399	-0.1090242502930412	-0.04944148115172205	0.0009540968464724524	0.09648519201841224	-39.23717653705312	3.760309707491007	2.198369473196027	1.115414478167876	-415.3364305057037	-60.33706010833495	-18.03572442387227	0.1301104699000759	0.2476378149994366	-1.001996256707984	0.1614780975876475	0.2858513894865918	-0.01075805685862862	0.9011298213999674	0.1364737333694952	0.1364737333505582	-0.08573996943371476	0.3525233047961492	-0.103469781368505	0.4633577716276621	6.703090138222481e-08	5.762309376536063e-06	-1.870694321579324e-06	6.891927972314414e-07	5.384867847094246e-07	3.547714516030344e-06	6.505470179767277e-07
1.58	-0.2880740528884423	0.08980083837681341	0.8357540873365468	0.7564633089103501	-0.3691034783601255	-0.08663213226233438	-0.266695476192657	0.5974413246910515	0.5974413246909587	-0.1013961189947199	-0.1563467936854309	0.2278166498118838	0.1234142101548291	0.4575864204077952	0.2706871663862505	0.3575099175869614	-2.134263677476385	0.03066235422074796	-0.5898814705497079	0.7070800139315885	-2.087653139173693	-2.087653139174084	-0.2531525778486172	0.1165487059390368	-0.5712768204272063	-0.1603964201376667	-0.09173957577740048	0.01463863229931327	0.01984976398694874	-0.1067847952157123	-0.04896118851997659	-0.0007473424342044704	0.0930621189803694	-39.10524305519632	4.397396655800727	2.186749681643583	1.410311951851209	-413.3495702204594	-60.00005645584393	-18.76128042450108	0.05890917312281163	0.2078655071160081	-1.040769822274753	0.4117421109763889	0.3342053325380175	0.1701132844029456	0.8325740697557074	0.349669149081661	0.3496691490816416	-0.02051856600780744	0.5128802190187017	-0.02650478910397586	0.5388085382693735	3.402884402385769e-08	5.934776734912421e-06	-1.643477548077393e-06	7.206177021244652e-07	4.660416147235563e-07	3.482448716024762e-06	6.368528893621066e-07
1.59	-0.2834954703583741	0.09251757781005979	0.839276655555348	0.7351431741549109	-0.3687817595347238	-0.09252671055332412	-0.2595851577139835	0.5765849412873022	0.5765849412871522	-0.1039292689397968	-0.1551618341121134	0.2221029091124054	0.1218352134803556	0.458044260725838	0.2725970219655258	0.3469520117326249	-2.12942203364682	0.03367687389569243	-0.5889529477990657	0.7148276047010621	-2.083294549131721	-2.08329454913223	-0.2534472978312116	0.1204281816790185	-0.5713724636875861	-0.155389591701133	-0.08768241220839972	0.01265988432755035	0.02046438097425752	-0.104777543653383	-0.04817564150277956	-0.002618624787017062	0.08963772083277786	-38.90022169879472	5.110906675296349	2.145288683423322	1.644586748223673	-411.6187050507821	-59.57548591031929	-19.45399507639495	0.0263584399532772	0.1731459656478905	-1.070991681332703	0.5715694282649846	0.2838699505398107	0.06694810839209889	0.722440016680601	0.5281794823340277	0.5281794823153571	-0.02852996900319411	0.323043774582203	0.01392699253544839	0.4827853183804111	-1.86570434989236e-09	6.138010655082557e-06	-1.399662829398976e-06	7.55098602263707e-07	3.822155290121612e-07	3.40586695438514e-06	6.241504439370235e-07
